PathFileType	4	(X/Y/Z)	path1_20_0-911.trc
DataRate	CameraRate	NumFrames	NumMarkers	Units	OrigDataRate	OrigDataStartFrame	OrigNumFrames
30	30	7	22	m	30	0	911
Frame#	Time	Hip			RHip			RKnee			RAnkle			RBigToe			RSmallToe			RHeel			LHip			LKnee			LAnkle			LBigToe			LSmallToe			LHeel			Neck			Head			Nose			RShoulder			RElbow			RWrist			LShoulder			LElbow			LWrist		
		X1	Y1	Z1	X2	Y2	Z2	X3	Y3	Z3	X4	Y4	Z4	X5	Y5	Z5	X6	Y6	Z6	X7	Y7	Z7	X8	Y8	Z8	X9	Y9	Z9	X10	Y10	Z10	X11	Y11	Z11	X12	Y12	Z12	X13	Y13	Z13	X14	Y14	Z14	X15	Y15	Z15	X16	Y16	Z16	X17	Y17	Z17	X18	Y18	Z18	X19	Y19	Z19	X20	Y20	Z20	X21	Y21	Z21	X22	Y22	Z22
1	0.0333333333333333	2.5066834415217136	0.8259108474764987	0.606852492329962	2.508184329417415	0.7953963867893024	0.5279186363228571	2.475720173112469	0.46364059044632605	0.519652448928868	2.5366567925823724	0.09790868431088717	0.5557507122016554	2.3530567405163594	0.01413282673225674	0.5305769760466956	2.375482734761477	0.022241858999858463	0.4711027239448281	2.581528899107801	0.03850418998579216	0.5527031153772204	2.4981535223277245	0.79359287129441	0.6957084627774414	2.506410221484418	0.43675200130212616	0.710771375229606	2.548153809066736	0.09151731048752104	0.6635880401172801	2.3616713646970626	0.020667569908570414	0.6861839810062099	2.4158702484430115	0.022182602168400962	0.7656848646947773	2.600486907257607	0.03385361062250907	0.6894692072105852	2.470201780870653	1.4760685802105424	0.625728636648639	2.4386623187802785	1.7237950294796918	0.5685900074858378	2.3366305437271326	1.6084757287149711	0.5863418986971394	2.5185854304908935	1.3699976011898736	0.4478114351396951	2.5348781456783183	1.0681219409034044	0.4322131547240163	2.4845889153943466	0.8375483067562873	0.3960459038968421	2.4931023755192077	1.3525777649675317	0.7555910721328843	2.5027205421992944	1.0654848091058202	0.8173527710321417	2.489464328475325	0.8274378459852778	0.8207955050910312
2	0.0666666666666666	2.5077418281329766	0.8285869704370672	0.6066089087706391	2.5085944169714685	0.796183332822373	0.5281283249417916	2.4770452110642673	0.4644996537592416	0.5210739067169201	2.5367078067653384	0.10130883740821674	0.555356780795073	2.35117732581843	0.02074725538100525	0.5323937250165656	2.379462351827401	0.022414464087680233	0.47228848068067925	2.582000859695852	0.03903598653116372	0.5549010569152675	2.500313352065106	0.7952687556353668	0.6945313918899705	2.5077740083701126	0.43669662957665745	0.6922492045173863	2.5495416607589765	0.09153136625397354	0.6641029070921848	2.3654549700314895	0.019831028782659143	0.687385004905813	2.4121573116927353	0.019994617827092283	0.7537024786173336	2.5956894269960817	0.036603958628320506	0.6837372671568682	2.4698577398854056	1.474600192509663	0.6240395303000534	2.43605391156319	1.7200636844793424	0.5681868493065947	2.3366040745545424	1.6095379103563425	0.5865735299925467	2.5168055288750284	1.3649432351197677	0.43898720830905946	2.5325335087130867	1.0694538562504967	0.42618002990366194	2.48405296982784	0.8397989320531554	0.3942476827977016	2.489629881662551	1.3522451090011478	0.7602982502796819	2.5030967082705007	1.066567034362698	0.8163994202350293	2.489918624706119	0.8309607699099747	0.8198674039544954
3	0.1	2.5084800431554872	0.830775916059163	0.6063425294501732	2.508864827535863	0.7966882831889122	0.5281247120286567	2.47815661904586	0.4650983860476566	0.5221932983055353	2.537022719585413	0.10385097645550043	0.5551715220150233	2.3497400024940736	0.025840315966022875	0.5340456834880356	2.3828281257178103	0.022565992315236455	0.4732916293756347	2.5826612771501942	0.03934043856772309	0.5570498321624294	2.50194846410247	0.7964615995244513	0.6934745361236455	2.50881968630419	0.43658346793154856	0.67745511692993	2.5506688546377583	0.09155734408916177	0.6645880378176167	2.368535011585222	0.019125484517734215	0.6881668866114171	2.409364396075884	0.018248672472372312	0.744316403531365	2.5919631265632623	0.038772153210141456	0.6791277984164603	2.4696162025667134	1.4734211249607807	0.6226129817358066	2.4342271836529785	1.716921624273869	0.5679523346158083	2.336599165101822	1.610496921592258	0.586761260903104	2.5160091612304885	1.362009239952562	0.4336204241988693	2.5311498035252504	1.070286378085572	0.4220236833960588	2.4835978074474503	0.8414927990839958	0.3928040301373001	2.4860098791045475	1.3517685986661623	0.7652555800654224	2.5032877109541323	1.067444950325905	0.8155205762598688	2.49025352793596	0.8337839128586252	0.8190419978063365
4	0.1333333333333333	2.50885459918637	0.8322412916444429	0.6061102869730172	2.5089827190363674	0.7968706214882461	0.5279113221881429	2.4788971966488464	0.46536794345936344	0.5228882368135422	2.537649302707484	0.10518628755746191	0.5552773061948469	2.3489087845451313	0.02879948719506265	0.5353686173792653	2.3851561380878366	0.02272608264600305	0.47394431935535214	2.583494145340042	0.03935618410505076	0.5588832099658683	2.5028926171186443	0.7970389801427924	0.6926526730519028	2.509410255797391	0.43643523357673997	0.6680344125555935	2.551418412224533	0.09160518573458629	0.6651642633302788	2.370603973080673	0.018570430533943638	0.688384246567653	2.4078929918634357	0.017119804994939335	0.7386763388387253	2.5893772731150997	0.040234624363939014	0.6758289091092401	2.4695065085842245	1.4726341043866653	0.6216024345413261	2.4338622601139805	1.715112454988052	0.5674566130429712	2.336636152318048	1.6112228160150994	0.5869480761476313	2.5162700933681705	1.3614847251415259	0.43228051361397596	2.5310719003014555	1.0704783308763828	0.42051330867870373	2.483237237625051	0.842338170665439	0.391901659008135	2.4823281407909783	1.351126586145219	0.7703579224659622	2.5032441333159823	1.0679874877276967	0.8147706395792215	2.4904275223726757	0.8355659253053761	0.8183964745747652
5	0.1666666666666666	2.50902562392373	0.83302638077422	0.6059921388033185	2.50901948701731	0.7969019004517284	0.5276670401814818	2.4792314524767445	0.46540860299114223	0.5232240207077117	2.5384818287827833	0.10545452695791777	0.5556625563768535	2.34859421466011	0.02989575503879549	0.5363613738324552	2.3863195910332156	0.02298473688926452	0.4740815302023457	2.5843905021809306	0.03914416006090961	0.5603027197861521	2.503305854322278	0.7972121417800364	0.6921541015169717	2.5095620740334166	0.4363348806085286	0.663470478007273	2.5518218033138234	0.09172034150245344	0.6660852524585062	2.3718119467742227	0.01809784166384392	0.6881028177484333	2.4074909595176184	0.016684696256354384	0.7363295181164025	2.587387159794349	0.04120043198517497	0.6734308164806875	2.4694909928839066	1.4721881213232741	0.6209995269092751	2.4347719218797614	1.7148032045785944	0.566414096218218	2.3367234146257525	1.6116149724151425	0.5872161857905565	2.5168250504400898	1.3619347892867188	0.43282967817399504	2.531745242997227	1.0702508541505245	0.4208000066855198	2.4828954452572796	0.8423445237503902	0.3914993577930271	2.4787729185984695	1.3503846820113674	0.7753261742029075	2.5030667457402656	1.0681753807894527	0.814191134160218	2.4904661995201414	0.8363782077692669	0.8179637539741683
6	0.2	2.5091457505467356	0.8333306368075661	0.6059942216425793	2.5090500216072824	0.7969878959816482	0.5275739224685355	2.4792523895607244	0.4653487289276074	0.5233388983247748	2.5393252526333088	0.1050709441692747	0.5562086530481536	2.3486290313574507	0.02979210446252247	0.5371588314348514	2.3865319682290784	0.023390797420329217	0.4737141206550804	2.585213933479007	0.03879971490953213	0.5612500646528916	2.5034487691360154	0.7972879009707228	0.6919891912500014	2.509391907205355	0.43635792011404767	0.6622223518885295	2.551937809068379	0.0920523326787406	0.6675662749721494	2.3725467068245836	0.017602591465616414	0.6874505985345378	2.4075844433778557	0.016988778967451042	0.7360777977130106	2.5857465714397048	0.041838829265910926	0.6717049556354395	2.469519449891971	1.4719892140237574	0.6206893396491435	2.435573119835337	1.715056230831176	0.565596292986521	2.3368467423408537	1.6116831547272654	0.5875987849983021	2.5168702375979546	1.3617383489623693	0.43277524634266895	2.5322321459971215	1.0699070336435554	0.421283355264344	2.482488157027284	0.8417310720500834	0.3914177381655841	2.475539647582217	1.349635603903079	0.7798807683380604	2.5028957962426417	1.0680891874064828	0.813812649269828	2.4904162191007266	0.836523401173247	0.8177303248829663
7	0.2333333333333333	2.50927414618133	0.833385016930627	0.6060443583044777	2.5091216380005132	0.797257946014055	0.5277041875530619	2.4791064073596165	0.46526239256106044	0.5233459444112913	2.5399051469875054	0.10456649917595878	0.5566835826090984	2.3488601798879385	0.02917436206035707	0.5378368365439139	2.386249843405364	0.023879325515515068	0.4731627197204045	2.585759345522782	0.038438162913564874	0.5613343762117559	2.5035348101616743	0.797482300481427	0.6920679298323299	2.5090904704519756	0.436529314717712	0.6626595875351775	2.5517726690009375	0.0927999816172572	0.6695576853978968	2.3731832381749687	0.016993426571731945	0.6865948872577562	2.4076573945706765	0.01781763059474301	0.73671871909819	2.584556465177775	0.04221979666384702	0.6706480624110178	2.469550584397225	1.4719446649142072	0.620542571141194	2.4346465228739103	1.7145047621139353	0.5663538895192197	2.336976488096327	1.6115647774282331	0.5880690641824073	2.516117803584077	1.3602205267902874	0.4309666914387721	2.5319447088085925	1.0696372508706868	0.4208658390307822	2.482032298321345	0.840847222249902	0.3914697899036154	2.4729357128187557	1.349010712249045	0.7836088665194744	2.5027914383443197	1.0678590930275733	0.8136219113378209	2.4903339737478327	0.8363377227376996	0.8176493179430885
